<mxfile host="Electron" modified="2023-05-29T15:09:06.099Z" agent="Mozilla/5.0 (Windows NT 10.0; Win64; x64) AppleWebKit/537.36 (KHTML, like Gecko) draw.io/21.2.8 Chrome/112.0.5615.165 Electron/24.2.0 Safari/537.36" etag="eh8bNrJOwSgjpSD-3z_i" version="21.2.8" type="device">
  <diagram name="Pagina-1" id="tZKwoIde8D5Y94dsGno5">
    <mxGraphModel dx="737" dy="1524" grid="1" gridSize="10" guides="1" tooltips="1" connect="1" arrows="1" fold="1" page="1" pageScale="1" pageWidth="827" pageHeight="1169" math="0" shadow="0">
      <root>
        <mxCell id="0" />
        <mxCell id="1" parent="0" />
        <mxCell id="U6hzRadci7Px48xgj-Yl-19" value="" style="edgeStyle=orthogonalEdgeStyle;rounded=0;orthogonalLoop=1;jettySize=auto;html=1;" edge="1" parent="1" source="U6hzRadci7Px48xgj-Yl-1" target="U6hzRadci7Px48xgj-Yl-2">
          <mxGeometry relative="1" as="geometry" />
        </mxCell>
        <mxCell id="U6hzRadci7Px48xgj-Yl-1" value="Admin" style="shape=umlActor;verticalLabelPosition=bottom;verticalAlign=top;html=1;outlineConnect=0;" vertex="1" parent="1">
          <mxGeometry x="150" y="-435" width="30" height="70" as="geometry" />
        </mxCell>
        <mxCell id="U6hzRadci7Px48xgj-Yl-2" value="AdminLogin" style="ellipse;whiteSpace=wrap;html=1;" vertex="1" parent="1">
          <mxGeometry x="220" y="-420" width="110" height="40" as="geometry" />
        </mxCell>
        <mxCell id="U6hzRadci7Px48xgj-Yl-4" value="Users" style="ellipse;whiteSpace=wrap;html=1;" vertex="1" parent="1">
          <mxGeometry x="359" y="-520" width="121" height="40" as="geometry" />
        </mxCell>
        <mxCell id="U6hzRadci7Px48xgj-Yl-5" value="Songs" style="ellipse;whiteSpace=wrap;html=1;" vertex="1" parent="1">
          <mxGeometry x="359" y="-460" width="121" height="40" as="geometry" />
        </mxCell>
        <mxCell id="U6hzRadci7Px48xgj-Yl-6" value="Playlists" style="ellipse;whiteSpace=wrap;html=1;" vertex="1" parent="1">
          <mxGeometry x="359" y="-400" width="121" height="40" as="geometry" />
        </mxCell>
        <mxCell id="U6hzRadci7Px48xgj-Yl-7" value="Custom Commands" style="ellipse;whiteSpace=wrap;html=1;" vertex="1" parent="1">
          <mxGeometry x="359" y="-340" width="121" height="40" as="geometry" />
        </mxCell>
        <mxCell id="U6hzRadci7Px48xgj-Yl-10" value="DeleteUser" style="ellipse;whiteSpace=wrap;html=1;" vertex="1" parent="1">
          <mxGeometry x="530" y="-520" width="121" height="40" as="geometry" />
        </mxCell>
        <mxCell id="U6hzRadci7Px48xgj-Yl-11" value="DeleteSong" style="ellipse;whiteSpace=wrap;html=1;" vertex="1" parent="1">
          <mxGeometry x="530" y="-460" width="121" height="40" as="geometry" />
        </mxCell>
        <mxCell id="U6hzRadci7Px48xgj-Yl-12" value="DeletePlaylist" style="ellipse;whiteSpace=wrap;html=1;" vertex="1" parent="1">
          <mxGeometry x="530" y="-400" width="121" height="40" as="geometry" />
        </mxCell>
        <mxCell id="U6hzRadci7Px48xgj-Yl-13" value="Execute custom&lt;br&gt;Query" style="ellipse;whiteSpace=wrap;html=1;" vertex="1" parent="1">
          <mxGeometry x="530" y="-340" width="121" height="40" as="geometry" />
        </mxCell>
        <mxCell id="U6hzRadci7Px48xgj-Yl-14" value="INSERT Query" style="ellipse;whiteSpace=wrap;html=1;" vertex="1" parent="1">
          <mxGeometry x="690" y="-410" width="121" height="40" as="geometry" />
        </mxCell>
        <mxCell id="U6hzRadci7Px48xgj-Yl-15" value="UPDATE Query" style="ellipse;whiteSpace=wrap;html=1;" vertex="1" parent="1">
          <mxGeometry x="690" y="-360" width="121" height="40" as="geometry" />
        </mxCell>
        <mxCell id="U6hzRadci7Px48xgj-Yl-16" value="DELETE Query" style="ellipse;whiteSpace=wrap;html=1;" vertex="1" parent="1">
          <mxGeometry x="690" y="-310" width="121" height="40" as="geometry" />
        </mxCell>
        <mxCell id="U6hzRadci7Px48xgj-Yl-17" value="SELECT Query" style="ellipse;whiteSpace=wrap;html=1;" vertex="1" parent="1">
          <mxGeometry x="690" y="-260" width="121" height="40" as="geometry" />
        </mxCell>
        <mxCell id="U6hzRadci7Px48xgj-Yl-31" value="" style="endArrow=none;html=1;rounded=0;entryX=0;entryY=0.5;entryDx=0;entryDy=0;exitX=0.5;exitY=1;exitDx=0;exitDy=0;" edge="1" parent="1" source="U6hzRadci7Px48xgj-Yl-2" target="U6hzRadci7Px48xgj-Yl-7">
          <mxGeometry width="50" height="50" relative="1" as="geometry">
            <mxPoint x="390" y="-260" as="sourcePoint" />
            <mxPoint x="440" y="-310" as="targetPoint" />
          </mxGeometry>
        </mxCell>
        <mxCell id="U6hzRadci7Px48xgj-Yl-32" value="" style="endArrow=none;html=1;rounded=0;entryX=0;entryY=0.5;entryDx=0;entryDy=0;exitX=1;exitY=1;exitDx=0;exitDy=0;" edge="1" parent="1" source="U6hzRadci7Px48xgj-Yl-2" target="U6hzRadci7Px48xgj-Yl-6">
          <mxGeometry width="50" height="50" relative="1" as="geometry">
            <mxPoint x="390" y="-260" as="sourcePoint" />
            <mxPoint x="440" y="-310" as="targetPoint" />
            <Array as="points" />
          </mxGeometry>
        </mxCell>
        <mxCell id="U6hzRadci7Px48xgj-Yl-33" value="" style="endArrow=none;html=1;rounded=0;entryX=0;entryY=0.5;entryDx=0;entryDy=0;exitX=1;exitY=0;exitDx=0;exitDy=0;" edge="1" parent="1" source="U6hzRadci7Px48xgj-Yl-2" target="U6hzRadci7Px48xgj-Yl-5">
          <mxGeometry width="50" height="50" relative="1" as="geometry">
            <mxPoint x="390" y="-260" as="sourcePoint" />
            <mxPoint x="440" y="-310" as="targetPoint" />
          </mxGeometry>
        </mxCell>
        <mxCell id="U6hzRadci7Px48xgj-Yl-34" value="" style="endArrow=none;html=1;rounded=0;entryX=0;entryY=0.5;entryDx=0;entryDy=0;exitX=0.5;exitY=0;exitDx=0;exitDy=0;" edge="1" parent="1" source="U6hzRadci7Px48xgj-Yl-2" target="U6hzRadci7Px48xgj-Yl-4">
          <mxGeometry width="50" height="50" relative="1" as="geometry">
            <mxPoint x="390" y="-260" as="sourcePoint" />
            <mxPoint x="440" y="-310" as="targetPoint" />
          </mxGeometry>
        </mxCell>
        <mxCell id="U6hzRadci7Px48xgj-Yl-35" value="" style="endArrow=none;html=1;rounded=0;entryX=0;entryY=0.5;entryDx=0;entryDy=0;exitX=1;exitY=0.5;exitDx=0;exitDy=0;" edge="1" parent="1" source="U6hzRadci7Px48xgj-Yl-4" target="U6hzRadci7Px48xgj-Yl-10">
          <mxGeometry width="50" height="50" relative="1" as="geometry">
            <mxPoint x="390" y="-260" as="sourcePoint" />
            <mxPoint x="440" y="-310" as="targetPoint" />
          </mxGeometry>
        </mxCell>
        <mxCell id="U6hzRadci7Px48xgj-Yl-36" value="" style="endArrow=none;html=1;rounded=0;entryX=0;entryY=0.5;entryDx=0;entryDy=0;exitX=1;exitY=0.5;exitDx=0;exitDy=0;" edge="1" parent="1" source="U6hzRadci7Px48xgj-Yl-5" target="U6hzRadci7Px48xgj-Yl-11">
          <mxGeometry width="50" height="50" relative="1" as="geometry">
            <mxPoint x="390" y="-260" as="sourcePoint" />
            <mxPoint x="440" y="-310" as="targetPoint" />
          </mxGeometry>
        </mxCell>
        <mxCell id="U6hzRadci7Px48xgj-Yl-37" value="" style="endArrow=none;html=1;rounded=0;entryX=0;entryY=0.5;entryDx=0;entryDy=0;exitX=1;exitY=0.5;exitDx=0;exitDy=0;" edge="1" parent="1" source="U6hzRadci7Px48xgj-Yl-6" target="U6hzRadci7Px48xgj-Yl-12">
          <mxGeometry width="50" height="50" relative="1" as="geometry">
            <mxPoint x="390" y="-260" as="sourcePoint" />
            <mxPoint x="440" y="-310" as="targetPoint" />
          </mxGeometry>
        </mxCell>
        <mxCell id="U6hzRadci7Px48xgj-Yl-38" value="" style="endArrow=none;html=1;rounded=0;entryX=0;entryY=0.5;entryDx=0;entryDy=0;exitX=1;exitY=0.5;exitDx=0;exitDy=0;" edge="1" parent="1" source="U6hzRadci7Px48xgj-Yl-7" target="U6hzRadci7Px48xgj-Yl-13">
          <mxGeometry width="50" height="50" relative="1" as="geometry">
            <mxPoint x="390" y="-260" as="sourcePoint" />
            <mxPoint x="440" y="-310" as="targetPoint" />
          </mxGeometry>
        </mxCell>
        <mxCell id="U6hzRadci7Px48xgj-Yl-39" value="" style="endArrow=none;html=1;rounded=0;entryX=0;entryY=0.5;entryDx=0;entryDy=0;exitX=1;exitY=0;exitDx=0;exitDy=0;" edge="1" parent="1" source="U6hzRadci7Px48xgj-Yl-13" target="U6hzRadci7Px48xgj-Yl-14">
          <mxGeometry width="50" height="50" relative="1" as="geometry">
            <mxPoint x="390" y="-260" as="sourcePoint" />
            <mxPoint x="440" y="-310" as="targetPoint" />
          </mxGeometry>
        </mxCell>
        <mxCell id="U6hzRadci7Px48xgj-Yl-40" value="" style="endArrow=none;html=1;rounded=0;entryX=0;entryY=0.5;entryDx=0;entryDy=0;exitX=1;exitY=0;exitDx=0;exitDy=0;" edge="1" parent="1" source="U6hzRadci7Px48xgj-Yl-13" target="U6hzRadci7Px48xgj-Yl-15">
          <mxGeometry width="50" height="50" relative="1" as="geometry">
            <mxPoint x="390" y="-260" as="sourcePoint" />
            <mxPoint x="440" y="-310" as="targetPoint" />
          </mxGeometry>
        </mxCell>
        <mxCell id="U6hzRadci7Px48xgj-Yl-41" value="" style="endArrow=none;html=1;rounded=0;entryX=0;entryY=0.5;entryDx=0;entryDy=0;exitX=1;exitY=1;exitDx=0;exitDy=0;" edge="1" parent="1" source="U6hzRadci7Px48xgj-Yl-13" target="U6hzRadci7Px48xgj-Yl-16">
          <mxGeometry width="50" height="50" relative="1" as="geometry">
            <mxPoint x="390" y="-260" as="sourcePoint" />
            <mxPoint x="440" y="-310" as="targetPoint" />
          </mxGeometry>
        </mxCell>
        <mxCell id="U6hzRadci7Px48xgj-Yl-42" value="" style="endArrow=none;html=1;rounded=0;entryX=0;entryY=0.5;entryDx=0;entryDy=0;exitX=1;exitY=1;exitDx=0;exitDy=0;" edge="1" parent="1" source="U6hzRadci7Px48xgj-Yl-13" target="U6hzRadci7Px48xgj-Yl-17">
          <mxGeometry width="50" height="50" relative="1" as="geometry">
            <mxPoint x="390" y="-260" as="sourcePoint" />
            <mxPoint x="440" y="-310" as="targetPoint" />
          </mxGeometry>
        </mxCell>
      </root>
    </mxGraphModel>
  </diagram>
</mxfile>
